<svg version="1.1" xmlns="http://www.w3.org/2000/svg" xmlns:xlink="http://www.w3.org/1999/xlink" width="340.34619140625" height="777"><defs/><g><text fill="#eeeeee" stroke="none" font-family="Arial" font-size="24px" font-style="normal" font-weight="normal" text-decoration="none" x="0" y="0">UNREGISTERED</text><text fill="#eeeeee" stroke="none" font-family="Arial" font-size="24px" font-style="normal" font-weight="normal" text-decoration="none" x="0" y="30">UNREGISTERED</text><text fill="#eeeeee" stroke="none" font-family="Arial" font-size="24px" font-style="normal" font-weight="normal" text-decoration="none" x="0" y="60">UNREGISTERED</text><text fill="#eeeeee" stroke="none" font-family="Arial" font-size="24px" font-style="normal" font-weight="normal" text-decoration="none" x="0" y="90">UNREGISTERED</text><text fill="#eeeeee" stroke="none" font-family="Arial" font-size="24px" font-style="normal" font-weight="normal" text-decoration="none" x="0" y="120">UNREGISTERED</text><text fill="#eeeeee" stroke="none" font-family="Arial" font-size="24px" font-style="normal" font-weight="normal" text-decoration="none" x="0" y="150">UNREGISTERED</text><text fill="#eeeeee" stroke="none" font-family="Arial" font-size="24px" font-style="normal" font-weight="normal" text-decoration="none" x="0" y="180">UNREGISTERED</text><text fill="#eeeeee" stroke="none" font-family="Arial" font-size="24px" font-style="normal" font-weight="normal" text-decoration="none" x="0" y="210">UNREGISTERED</text><text fill="#eeeeee" stroke="none" font-family="Arial" font-size="24px" font-style="normal" font-weight="normal" text-decoration="none" x="0" y="240">UNREGISTERED</text><text fill="#eeeeee" stroke="none" font-family="Arial" font-size="24px" font-style="normal" font-weight="normal" text-decoration="none" x="0" y="270">UNREGISTERED</text><text fill="#eeeeee" stroke="none" font-family="Arial" font-size="24px" font-style="normal" font-weight="normal" text-decoration="none" x="0" y="300">UNREGISTERED</text><text fill="#eeeeee" stroke="none" font-family="Arial" font-size="24px" font-style="normal" font-weight="normal" text-decoration="none" x="0" y="330">UNREGISTERED</text><text fill="#eeeeee" stroke="none" font-family="Arial" font-size="24px" font-style="normal" font-weight="normal" text-decoration="none" x="0" y="360">UNREGISTERED</text><text fill="#eeeeee" stroke="none" font-family="Arial" font-size="24px" font-style="normal" font-weight="normal" text-decoration="none" x="0" y="390">UNREGISTERED</text><text fill="#eeeeee" stroke="none" font-family="Arial" font-size="24px" font-style="normal" font-weight="normal" text-decoration="none" x="0" y="420">UNREGISTERED</text><text fill="#eeeeee" stroke="none" font-family="Arial" font-size="24px" font-style="normal" font-weight="normal" text-decoration="none" x="0" y="450">UNREGISTERED</text><text fill="#eeeeee" stroke="none" font-family="Arial" font-size="24px" font-style="normal" font-weight="normal" text-decoration="none" x="0" y="480">UNREGISTERED</text><text fill="#eeeeee" stroke="none" font-family="Arial" font-size="24px" font-style="normal" font-weight="normal" text-decoration="none" x="0" y="510">UNREGISTERED</text><text fill="#eeeeee" stroke="none" font-family="Arial" font-size="24px" font-style="normal" font-weight="normal" text-decoration="none" x="0" y="540">UNREGISTERED</text><text fill="#eeeeee" stroke="none" font-family="Arial" font-size="24px" font-style="normal" font-weight="normal" text-decoration="none" x="0" y="570">UNREGISTERED</text><text fill="#eeeeee" stroke="none" font-family="Arial" font-size="24px" font-style="normal" font-weight="normal" text-decoration="none" x="0" y="600">UNREGISTERED</text><text fill="#eeeeee" stroke="none" font-family="Arial" font-size="24px" font-style="normal" font-weight="normal" text-decoration="none" x="0" y="630">UNREGISTERED</text><text fill="#eeeeee" stroke="none" font-family="Arial" font-size="24px" font-style="normal" font-weight="normal" text-decoration="none" x="0" y="660">UNREGISTERED</text><text fill="#eeeeee" stroke="none" font-family="Arial" font-size="24px" font-style="normal" font-weight="normal" text-decoration="none" x="0" y="690">UNREGISTERED</text><text fill="#eeeeee" stroke="none" font-family="Arial" font-size="24px" font-style="normal" font-weight="normal" text-decoration="none" x="0" y="720">UNREGISTERED</text><text fill="#eeeeee" stroke="none" font-family="Arial" font-size="24px" font-style="normal" font-weight="normal" text-decoration="none" x="0" y="750">UNREGISTERED</text><text fill="#eeeeee" stroke="none" font-family="Arial" font-size="24px" font-style="normal" font-weight="normal" text-decoration="none" x="200" y="0">UNREGISTERED</text><text fill="#eeeeee" stroke="none" font-family="Arial" font-size="24px" font-style="normal" font-weight="normal" text-decoration="none" x="200" y="30">UNREGISTERED</text><text fill="#eeeeee" stroke="none" font-family="Arial" font-size="24px" font-style="normal" font-weight="normal" text-decoration="none" x="200" y="60">UNREGISTERED</text><text fill="#eeeeee" stroke="none" font-family="Arial" font-size="24px" font-style="normal" font-weight="normal" text-decoration="none" x="200" y="90">UNREGISTERED</text><text fill="#eeeeee" stroke="none" font-family="Arial" font-size="24px" font-style="normal" font-weight="normal" text-decoration="none" x="200" y="120">UNREGISTERED</text><text fill="#eeeeee" stroke="none" font-family="Arial" font-size="24px" font-style="normal" font-weight="normal" text-decoration="none" x="200" y="150">UNREGISTERED</text><text fill="#eeeeee" stroke="none" font-family="Arial" font-size="24px" font-style="normal" font-weight="normal" text-decoration="none" x="200" y="180">UNREGISTERED</text><text fill="#eeeeee" stroke="none" font-family="Arial" font-size="24px" font-style="normal" font-weight="normal" text-decoration="none" x="200" y="210">UNREGISTERED</text><text fill="#eeeeee" stroke="none" font-family="Arial" font-size="24px" font-style="normal" font-weight="normal" text-decoration="none" x="200" y="240">UNREGISTERED</text><text fill="#eeeeee" stroke="none" font-family="Arial" font-size="24px" font-style="normal" font-weight="normal" text-decoration="none" x="200" y="270">UNREGISTERED</text><text fill="#eeeeee" stroke="none" font-family="Arial" font-size="24px" font-style="normal" font-weight="normal" text-decoration="none" x="200" y="300">UNREGISTERED</text><text fill="#eeeeee" stroke="none" font-family="Arial" font-size="24px" font-style="normal" font-weight="normal" text-decoration="none" x="200" y="330">UNREGISTERED</text><text fill="#eeeeee" stroke="none" font-family="Arial" font-size="24px" font-style="normal" font-weight="normal" text-decoration="none" x="200" y="360">UNREGISTERED</text><text fill="#eeeeee" stroke="none" font-family="Arial" font-size="24px" font-style="normal" font-weight="normal" text-decoration="none" x="200" y="390">UNREGISTERED</text><text fill="#eeeeee" stroke="none" font-family="Arial" font-size="24px" font-style="normal" font-weight="normal" text-decoration="none" x="200" y="420">UNREGISTERED</text><text fill="#eeeeee" stroke="none" font-family="Arial" font-size="24px" font-style="normal" font-weight="normal" text-decoration="none" x="200" y="450">UNREGISTERED</text><text fill="#eeeeee" stroke="none" font-family="Arial" font-size="24px" font-style="normal" font-weight="normal" text-decoration="none" x="200" y="480">UNREGISTERED</text><text fill="#eeeeee" stroke="none" font-family="Arial" font-size="24px" font-style="normal" font-weight="normal" text-decoration="none" x="200" y="510">UNREGISTERED</text><text fill="#eeeeee" stroke="none" font-family="Arial" font-size="24px" font-style="normal" font-weight="normal" text-decoration="none" x="200" y="540">UNREGISTERED</text><text fill="#eeeeee" stroke="none" font-family="Arial" font-size="24px" font-style="normal" font-weight="normal" text-decoration="none" x="200" y="570">UNREGISTERED</text><text fill="#eeeeee" stroke="none" font-family="Arial" font-size="24px" font-style="normal" font-weight="normal" text-decoration="none" x="200" y="600">UNREGISTERED</text><text fill="#eeeeee" stroke="none" font-family="Arial" font-size="24px" font-style="normal" font-weight="normal" text-decoration="none" x="200" y="630">UNREGISTERED</text><text fill="#eeeeee" stroke="none" font-family="Arial" font-size="24px" font-style="normal" font-weight="normal" text-decoration="none" x="200" y="660">UNREGISTERED</text><text fill="#eeeeee" stroke="none" font-family="Arial" font-size="24px" font-style="normal" font-weight="normal" text-decoration="none" x="200" y="690">UNREGISTERED</text><text fill="#eeeeee" stroke="none" font-family="Arial" font-size="24px" font-style="normal" font-weight="normal" text-decoration="none" x="200" y="720">UNREGISTERED</text><text fill="#eeeeee" stroke="none" font-family="Arial" font-size="24px" font-style="normal" font-weight="normal" text-decoration="none" x="200" y="750">UNREGISTERED</text><g transform="translate(-982,-335) scale(1,1)"><rect fill="#C0C0C0" stroke="none" x="1000" y="488" width="306.298828125" height="175" opacity="0.2"/></g><g transform="translate(-982,-335) scale(1,1)"><rect fill="#ffffff" stroke="none" x="993" y="481" width="306.298828125" height="175"/></g><g transform="translate(-982,-335) scale(1,1)"><path fill="none" stroke="#000000" d="M 993 481 L 1299.298828125 481 L 1299.298828125 656 L 993 656 L 993 481 Z Z" stroke-miterlimit="10"/></g><g transform="translate(-982,-335) scale(1,1)"><path fill="none" stroke="#000000" d="M 993 506 L 1299.298828125 506" stroke-miterlimit="10"/></g><g transform="translate(-982,-335) scale(1,1)"><path fill="none" stroke="#000000" d="M 993 544 L 1299.298828125 544" stroke-miterlimit="10"/></g><g transform="translate(-982,-335) scale(1,1)"><g><path fill="none" stroke="none"/><text fill="#000000" stroke="none" font-family="Arial" font-size="13px" font-style="italic" font-weight="bold" text-decoration="none" x="1078.232666015625" y="500.5">StaticQueryListElement</text></g></g><g transform="translate(-982,-335) scale(1,1)"><g><path fill="none" stroke="none"/><text fill="#000000" stroke="none" font-family="Arial" font-size="13px" font-style="normal" font-weight="normal" text-decoration="none" x="998" y="523.5">+cardsElemsArray[]: HTMLElement</text></g></g><g transform="translate(-982,-335) scale(1,1)"><g><path fill="none" stroke="none"/><text fill="#000000" stroke="none" font-family="Arial" font-size="13px" font-style="normal" font-weight="normal" text-decoration="none" x="998" y="538.5">+currentUserID: string</text></g></g><g transform="translate(-982,-335) scale(1,1)"><g><path fill="none" stroke="none"/><text fill="#000000" stroke="none" font-family="Arial" font-size="13px" font-style="normal" font-weight="normal" text-decoration="none" x="998" y="561.5">+initQueryListElement()</text></g></g><g transform="translate(-982,-335) scale(1,1)"><g><path fill="none" stroke="none"/><text fill="#000000" stroke="none" font-family="Arial" font-size="13px" font-style="normal" font-weight="normal" text-decoration="none" x="998" y="576.5">+createNewCard(doc)</text></g></g><g transform="translate(-982,-335) scale(1,1)"><g><path fill="none" stroke="none"/><text fill="#000000" stroke="none" font-family="Arial" font-size="13px" font-style="normal" font-weight="normal" text-decoration="none" x="998" y="591.5">+setupSnapshot()</text></g></g><g transform="translate(-982,-335) scale(1,1)"><g><path fill="none" stroke="none"/><text fill="#000000" stroke="none" font-family="Arial" font-size="13px" font-style="italic" font-weight="normal" text-decoration="none" x="998" y="606.5">+getQueryReference(): queryRef</text></g></g><g transform="translate(-982,-335) scale(1,1)"><g><path fill="none" stroke="none"/><text fill="#000000" stroke="none" font-family="Arial" font-size="13px" font-style="italic" font-weight="normal" text-decoration="none" x="998" y="621.5">+createCardDOMElement(docData): HTMLElement</text></g></g><g transform="translate(-982,-335) scale(1,1)"><rect fill="#C0C0C0" stroke="none" x="1104" y="352" width="95.6708984375" height="57" opacity="0.2"/></g><g transform="translate(-982,-335) scale(1,1)"><rect fill="#ffffff" stroke="none" x="1097" y="345" width="95.6708984375" height="57"/></g><g transform="translate(-982,-335) scale(1,1)"><path fill="none" stroke="#000000" d="M 1097 345 L 1192.6708984375 345 L 1192.6708984375 402 L 1097 402 L 1097 345 Z Z" stroke-miterlimit="10"/></g><g transform="translate(-982,-335) scale(1,1)"><path fill="none" stroke="#000000" d="M 1097 370 L 1192.6708984375 370" stroke-miterlimit="10"/></g><g transform="translate(-982,-335) scale(1,1)"><path fill="none" stroke="#000000" d="M 1097 380 L 1192.6708984375 380" stroke-miterlimit="10"/></g><g transform="translate(-982,-335) scale(1,1)"><g><path fill="none" stroke="none"/><text fill="#000000" stroke="none" font-family="Arial" font-size="13px" font-style="normal" font-weight="bold" text-decoration="none" x="1103.29638671875" y="364.5">HTMLElement</text></g></g><g transform="translate(-982,-335) scale(1,1)"><rect fill="#C0C0C0" stroke="none" x="1055" y="752" width="204.47607421875" height="190" opacity="0.2"/></g><g transform="translate(-982,-335) scale(1,1)"><rect fill="#ffffff" stroke="none" x="1048" y="745" width="204.47607421875" height="190"/></g><g transform="translate(-982,-335) scale(1,1)"><path fill="none" stroke="#000000" d="M 1048 745 L 1252.47607421875 745 L 1252.47607421875 935 L 1048 935 L 1048 745 Z Z" stroke-miterlimit="10"/></g><g transform="translate(-982,-335) scale(1,1)"><path fill="none" stroke="#000000" d="M 1048 770 L 1252.47607421875 770" stroke-miterlimit="10"/></g><g transform="translate(-982,-335) scale(1,1)"><path fill="none" stroke="#000000" d="M 1048 793 L 1252.47607421875 793" stroke-miterlimit="10"/></g><g transform="translate(-982,-335) scale(1,1)"><g><path fill="none" stroke="none"/><text fill="#000000" stroke="none" font-family="Arial" font-size="13px" font-style="italic" font-weight="bold" text-decoration="none" x="1080.877197265625" y="764.5">ActiveQueryListElement</text></g></g><g transform="translate(-982,-335) scale(1,1)"><g><path fill="none" stroke="none"/><text fill="#000000" stroke="none" font-family="Arial" font-size="13px" font-style="normal" font-weight="normal" text-decoration="none" x="1053" y="787.5">+SnapshotListener: Snapshot</text></g></g><g transform="translate(-982,-335) scale(1,1)"><g><path fill="none" stroke="none"/><text fill="#000000" stroke="none" font-family="Arial" font-size="13px" font-style="normal" font-weight="normal" text-decoration="none" x="1053" y="810.5">+disconnectedCallback()</text></g></g><g transform="translate(-982,-335) scale(1,1)"><g><path fill="none" stroke="none"/><text fill="#000000" stroke="none" font-family="Arial" font-size="13px" font-style="normal" font-weight="normal" text-decoration="none" x="1053" y="825.5">+removeListeners()</text></g></g><g transform="translate(-982,-335) scale(1,1)"><g><path fill="none" stroke="none"/><text fill="#000000" stroke="none" font-family="Arial" font-size="13px" font-style="normal" font-weight="normal" text-decoration="none" x="1053" y="840.5">+_onDocumentAdded(change)</text></g></g><g transform="translate(-982,-335) scale(1,1)"><g><path fill="none" stroke="none"/><text fill="#000000" stroke="none" font-family="Arial" font-size="13px" font-style="normal" font-weight="normal" text-decoration="none" x="1053" y="855.5">+_onDocumentChange(change)</text></g></g><g transform="translate(-982,-335) scale(1,1)"><g><path fill="none" stroke="none"/><text fill="#000000" stroke="none" font-family="Arial" font-size="13px" font-style="normal" font-weight="normal" text-decoration="none" x="1053" y="870.5">+_onDocumentRemoved(change)</text></g></g><g transform="translate(-982,-335) scale(1,1)"><g><path fill="none" stroke="none"/><text fill="#000000" stroke="none" font-family="Arial" font-size="13px" font-style="normal" font-weight="normal" text-decoration="none" x="1053" y="885.5">+createNewCard(change)</text></g></g><g transform="translate(-982,-335) scale(1,1)"><g><path fill="none" stroke="none"/><text fill="#000000" stroke="none" font-family="Arial" font-size="13px" font-style="normal" font-weight="normal" text-decoration="none" x="1053" y="900.5">+applyChangesToCard(change)</text></g></g><g transform="translate(-982,-335) scale(1,1)"><g><path fill="none" stroke="none"/><text fill="#000000" stroke="none" font-family="Arial" font-size="13px" font-style="normal" font-weight="normal" text-decoration="none" x="1053" y="915.5">+removeCard(change)</text></g></g><g transform="translate(-982,-335) scale(1,1)"><g><path fill="none" stroke="none"/><text fill="#000000" stroke="none" font-family="Arial" font-size="13px" font-style="normal" font-weight="normal" text-decoration="none" x="1053" y="930.5">+setupSnapshot()</text></g></g><g transform="translate(-982,-335) scale(1,1)"><rect fill="#C0C0C0" stroke="none" x="999" y="1007" width="320.34619140625" height="102" opacity="0.2"/></g><g transform="translate(-982,-335) scale(1,1)"><rect fill="#ffffff" stroke="none" x="992" y="1000" width="320.34619140625" height="102"/></g><g transform="translate(-982,-335) scale(1,1)"><path fill="none" stroke="#000000" d="M 992 1000 L 1312.34619140625 1000 L 1312.34619140625 1102 L 992 1102 L 992 1000 Z Z" stroke-miterlimit="10"/></g><g transform="translate(-982,-335) scale(1,1)"><path fill="none" stroke="#000000" d="M 992 1025 L 1312.34619140625 1025" stroke-miterlimit="10"/></g><g transform="translate(-982,-335) scale(1,1)"><path fill="none" stroke="#000000" d="M 992 1035 L 1312.34619140625 1035" stroke-miterlimit="10"/></g><g transform="translate(-982,-335) scale(1,1)"><g><path fill="none" stroke="none"/><text fill="#000000" stroke="none" font-family="Arial" font-size="13px" font-style="italic" font-weight="bold" text-decoration="none" x="1071.59912109375" y="1019.5">ChangeableActiveQueryList</text></g></g><g transform="translate(-982,-335) scale(1,1)"><g><path fill="none" stroke="none"/><text fill="#000000" stroke="none" font-family="Arial" font-size="13px" font-style="normal" font-weight="normal" text-decoration="none" x="997" y="1052.5">+initQueryListElement()</text></g></g><g transform="translate(-982,-335) scale(1,1)"><g><path fill="none" stroke="none"/><text fill="#000000" stroke="none" font-family="Arial" font-size="13px" font-style="normal" font-weight="normal" text-decoration="none" x="997" y="1067.5">+set CollectionTarget()</text></g></g><g transform="translate(-982,-335) scale(1,1)"><g><path fill="none" stroke="none"/><text fill="#000000" stroke="none" font-family="Arial" font-size="13px" font-style="normal" font-weight="normal" text-decoration="none" x="997" y="1082.5">+removeAllCards()</text></g></g><g transform="translate(-982,-335) scale(1,1)"><path fill="none" stroke="#000000" d="M 1152 999 L 1151 936" stroke-miterlimit="10"/></g><g transform="translate(-982,-335) scale(1,1)"><path fill="#FFFFFF" stroke="none" d="M 1159.7405590765982 956.1891710337125 L 1151 936 L 1142.904608849951 956.4564083388974"/></g><g transform="translate(-982,-335) scale(1,1)"><path fill="none" stroke="#000000" d="M 1159.7405590765982 956.1891710337125 L 1151 936 L 1142.904608849951 956.4564083388974 L 1159.7405590765982 956.1891710337125" stroke-miterlimit="10"/></g><g transform="translate(-982,-335) scale(1,1)"><path fill="none" stroke="#000000" d="M 1149 744 L 1147 657" stroke-miterlimit="10"/></g><g transform="translate(-982,-335) scale(1,1)"><path fill="#FFFFFF" stroke="none" d="M 1155.8839377873276 677.1264912339656 L 1147 657 L 1139.05031422003 677.5134710860874"/></g><g transform="translate(-982,-335) scale(1,1)"><path fill="none" stroke="#000000" d="M 1155.8839377873276 677.1264912339656 L 1147 657 L 1139.05031422003 677.5134710860874 L 1155.8839377873276 677.1264912339656" stroke-miterlimit="10"/></g><g transform="translate(-982,-335) scale(1,1)"><path fill="none" stroke="#000000" d="M 1145 480 L 1144 403" stroke-miterlimit="10"/></g><g transform="translate(-982,-335) scale(1,1)"><path fill="#FFFFFF" stroke="none" d="M 1152.6822689370003 423.2143069657508 L 1144 403 L 1135.8456177089693 423.43296477390703"/></g><g transform="translate(-982,-335) scale(1,1)"><path fill="none" stroke="#000000" d="M 1152.6822689370003 423.2143069657508 L 1144 403 L 1135.8456177089693 423.43296477390703 L 1152.6822689370003 423.2143069657508" stroke-miterlimit="10"/></g></g></svg>