<svg version="1.1" xmlns="http://www.w3.org/2000/svg" xmlns:xlink="http://www.w3.org/1999/xlink" width="119.28271484375" height="312"><defs/><g><text fill="#eeeeee" stroke="none" font-family="Arial" font-size="24px" font-style="normal" font-weight="normal" text-decoration="none" x="0" y="0">UNREGISTERED</text><text fill="#eeeeee" stroke="none" font-family="Arial" font-size="24px" font-style="normal" font-weight="normal" text-decoration="none" x="0" y="30">UNREGISTERED</text><text fill="#eeeeee" stroke="none" font-family="Arial" font-size="24px" font-style="normal" font-weight="normal" text-decoration="none" x="0" y="60">UNREGISTERED</text><text fill="#eeeeee" stroke="none" font-family="Arial" font-size="24px" font-style="normal" font-weight="normal" text-decoration="none" x="0" y="90">UNREGISTERED</text><text fill="#eeeeee" stroke="none" font-family="Arial" font-size="24px" font-style="normal" font-weight="normal" text-decoration="none" x="0" y="120">UNREGISTERED</text><text fill="#eeeeee" stroke="none" font-family="Arial" font-size="24px" font-style="normal" font-weight="normal" text-decoration="none" x="0" y="150">UNREGISTERED</text><text fill="#eeeeee" stroke="none" font-family="Arial" font-size="24px" font-style="normal" font-weight="normal" text-decoration="none" x="0" y="180">UNREGISTERED</text><text fill="#eeeeee" stroke="none" font-family="Arial" font-size="24px" font-style="normal" font-weight="normal" text-decoration="none" x="0" y="210">UNREGISTERED</text><text fill="#eeeeee" stroke="none" font-family="Arial" font-size="24px" font-style="normal" font-weight="normal" text-decoration="none" x="0" y="240">UNREGISTERED</text><text fill="#eeeeee" stroke="none" font-family="Arial" font-size="24px" font-style="normal" font-weight="normal" text-decoration="none" x="0" y="270">UNREGISTERED</text><text fill="#eeeeee" stroke="none" font-family="Arial" font-size="24px" font-style="normal" font-weight="normal" text-decoration="none" x="0" y="300">UNREGISTERED</text><g transform="translate(-798,-326) scale(1,1)"><rect fill="#C0C0C0" stroke="none" x="815" y="343" width="99.28271484375" height="44" opacity="0.2"/></g><g transform="translate(-798,-326) scale(1,1)"><rect fill="#ffffff" stroke="none" x="808" y="336" width="99.28271484375" height="44"/></g><g transform="translate(-798,-326) scale(1,1)"><path fill="none" stroke="#000000" d="M 808 336 L 907.28271484375 336 L 907.28271484375 380 L 808 380 L 808 336 Z Z" stroke-miterlimit="10"/></g><g transform="translate(-798,-326) scale(1,1)"><path fill="none" stroke="#000000" d="M 808 361 L 907.28271484375 361" stroke-miterlimit="10"/></g><g transform="translate(-798,-326) scale(1,1)"><path fill="none" stroke="#000000" d="M 808 371 L 907.28271484375 371" stroke-miterlimit="10"/></g><g transform="translate(-798,-326) scale(1,1)"><g><path fill="none" stroke="none"/><text fill="#000000" stroke="none" font-family="Arial" font-size="13px" font-style="normal" font-weight="bold" text-decoration="none" x="814.29638671875" y="355.5">HTML Element</text></g></g><g transform="translate(-798,-326) scale(1,1)"><rect fill="#C0C0C0" stroke="none" x="815" y="471" width="72.5908203125" height="44" opacity="0.2"/></g><g transform="translate(-798,-326) scale(1,1)"><rect fill="#ffffff" stroke="none" x="808" y="464" width="72.5908203125" height="44"/></g><g transform="translate(-798,-326) scale(1,1)"><path fill="none" stroke="#000000" d="M 808 464 L 880.5908203125 464 L 880.5908203125 508 L 808 508 L 808 464 Z Z" stroke-miterlimit="10"/></g><g transform="translate(-798,-326) scale(1,1)"><path fill="none" stroke="#000000" d="M 808 489 L 880.5908203125 489" stroke-miterlimit="10"/></g><g transform="translate(-798,-326) scale(1,1)"><path fill="none" stroke="#000000" d="M 808 499 L 880.5908203125 499" stroke-miterlimit="10"/></g><g transform="translate(-798,-326) scale(1,1)"><g><path fill="none" stroke="none"/><text fill="#000000" stroke="none" font-family="Arial" font-size="13px" font-style="normal" font-weight="bold" text-decoration="none" x="813.58544921875" y="483.5">User Page</text></g></g><g transform="translate(-798,-326) scale(1,1)"><rect fill="#C0C0C0" stroke="none" x="815" y="591" width="61.025390625" height="44" opacity="0.2"/></g><g transform="translate(-798,-326) scale(1,1)"><rect fill="#ffffff" stroke="none" x="808" y="584" width="61.025390625" height="44"/></g><g transform="translate(-798,-326) scale(1,1)"><path fill="none" stroke="#000000" d="M 808 584 L 869.025390625 584 L 869.025390625 628 L 808 628 L 808 584 Z Z" stroke-miterlimit="10"/></g><g transform="translate(-798,-326) scale(1,1)"><path fill="none" stroke="#000000" d="M 808 609 L 869.025390625 609" stroke-miterlimit="10"/></g><g transform="translate(-798,-326) scale(1,1)"><path fill="none" stroke="#000000" d="M 808 619 L 869.025390625 619" stroke-miterlimit="10"/></g><g transform="translate(-798,-326) scale(1,1)"><g><path fill="none" stroke="none"/><text fill="#000000" stroke="none" font-family="Arial" font-size="13px" font-style="normal" font-weight="bold" text-decoration="none" x="814.674072265625" y="603.5">Skill Bar</text></g></g></g></svg>