<svg version="1.1" xmlns="http://www.w3.org/2000/svg" xmlns:xlink="http://www.w3.org/1999/xlink" width="276" height="489"><defs/><g><text fill="#eeeeee" stroke="none" font-family="Arial" font-size="24px" font-style="normal" font-weight="normal" text-decoration="none" x="0" y="0">UNREGISTERED</text><text fill="#eeeeee" stroke="none" font-family="Arial" font-size="24px" font-style="normal" font-weight="normal" text-decoration="none" x="0" y="30">UNREGISTERED</text><text fill="#eeeeee" stroke="none" font-family="Arial" font-size="24px" font-style="normal" font-weight="normal" text-decoration="none" x="0" y="60">UNREGISTERED</text><text fill="#eeeeee" stroke="none" font-family="Arial" font-size="24px" font-style="normal" font-weight="normal" text-decoration="none" x="0" y="90">UNREGISTERED</text><text fill="#eeeeee" stroke="none" font-family="Arial" font-size="24px" font-style="normal" font-weight="normal" text-decoration="none" x="0" y="120">UNREGISTERED</text><text fill="#eeeeee" stroke="none" font-family="Arial" font-size="24px" font-style="normal" font-weight="normal" text-decoration="none" x="0" y="150">UNREGISTERED</text><text fill="#eeeeee" stroke="none" font-family="Arial" font-size="24px" font-style="normal" font-weight="normal" text-decoration="none" x="0" y="180">UNREGISTERED</text><text fill="#eeeeee" stroke="none" font-family="Arial" font-size="24px" font-style="normal" font-weight="normal" text-decoration="none" x="0" y="210">UNREGISTERED</text><text fill="#eeeeee" stroke="none" font-family="Arial" font-size="24px" font-style="normal" font-weight="normal" text-decoration="none" x="0" y="240">UNREGISTERED</text><text fill="#eeeeee" stroke="none" font-family="Arial" font-size="24px" font-style="normal" font-weight="normal" text-decoration="none" x="0" y="270">UNREGISTERED</text><text fill="#eeeeee" stroke="none" font-family="Arial" font-size="24px" font-style="normal" font-weight="normal" text-decoration="none" x="0" y="300">UNREGISTERED</text><text fill="#eeeeee" stroke="none" font-family="Arial" font-size="24px" font-style="normal" font-weight="normal" text-decoration="none" x="0" y="330">UNREGISTERED</text><text fill="#eeeeee" stroke="none" font-family="Arial" font-size="24px" font-style="normal" font-weight="normal" text-decoration="none" x="0" y="360">UNREGISTERED</text><text fill="#eeeeee" stroke="none" font-family="Arial" font-size="24px" font-style="normal" font-weight="normal" text-decoration="none" x="0" y="390">UNREGISTERED</text><text fill="#eeeeee" stroke="none" font-family="Arial" font-size="24px" font-style="normal" font-weight="normal" text-decoration="none" x="0" y="420">UNREGISTERED</text><text fill="#eeeeee" stroke="none" font-family="Arial" font-size="24px" font-style="normal" font-weight="normal" text-decoration="none" x="0" y="450">UNREGISTERED</text><text fill="#eeeeee" stroke="none" font-family="Arial" font-size="24px" font-style="normal" font-weight="normal" text-decoration="none" x="0" y="480">UNREGISTERED</text><text fill="#eeeeee" stroke="none" font-family="Arial" font-size="24px" font-style="normal" font-weight="normal" text-decoration="none" x="200" y="0">UNREGISTERED</text><text fill="#eeeeee" stroke="none" font-family="Arial" font-size="24px" font-style="normal" font-weight="normal" text-decoration="none" x="200" y="30">UNREGISTERED</text><text fill="#eeeeee" stroke="none" font-family="Arial" font-size="24px" font-style="normal" font-weight="normal" text-decoration="none" x="200" y="60">UNREGISTERED</text><text fill="#eeeeee" stroke="none" font-family="Arial" font-size="24px" font-style="normal" font-weight="normal" text-decoration="none" x="200" y="90">UNREGISTERED</text><text fill="#eeeeee" stroke="none" font-family="Arial" font-size="24px" font-style="normal" font-weight="normal" text-decoration="none" x="200" y="120">UNREGISTERED</text><text fill="#eeeeee" stroke="none" font-family="Arial" font-size="24px" font-style="normal" font-weight="normal" text-decoration="none" x="200" y="150">UNREGISTERED</text><text fill="#eeeeee" stroke="none" font-family="Arial" font-size="24px" font-style="normal" font-weight="normal" text-decoration="none" x="200" y="180">UNREGISTERED</text><text fill="#eeeeee" stroke="none" font-family="Arial" font-size="24px" font-style="normal" font-weight="normal" text-decoration="none" x="200" y="210">UNREGISTERED</text><text fill="#eeeeee" stroke="none" font-family="Arial" font-size="24px" font-style="normal" font-weight="normal" text-decoration="none" x="200" y="240">UNREGISTERED</text><text fill="#eeeeee" stroke="none" font-family="Arial" font-size="24px" font-style="normal" font-weight="normal" text-decoration="none" x="200" y="270">UNREGISTERED</text><text fill="#eeeeee" stroke="none" font-family="Arial" font-size="24px" font-style="normal" font-weight="normal" text-decoration="none" x="200" y="300">UNREGISTERED</text><text fill="#eeeeee" stroke="none" font-family="Arial" font-size="24px" font-style="normal" font-weight="normal" text-decoration="none" x="200" y="330">UNREGISTERED</text><text fill="#eeeeee" stroke="none" font-family="Arial" font-size="24px" font-style="normal" font-weight="normal" text-decoration="none" x="200" y="360">UNREGISTERED</text><text fill="#eeeeee" stroke="none" font-family="Arial" font-size="24px" font-style="normal" font-weight="normal" text-decoration="none" x="200" y="390">UNREGISTERED</text><text fill="#eeeeee" stroke="none" font-family="Arial" font-size="24px" font-style="normal" font-weight="normal" text-decoration="none" x="200" y="420">UNREGISTERED</text><text fill="#eeeeee" stroke="none" font-family="Arial" font-size="24px" font-style="normal" font-weight="normal" text-decoration="none" x="200" y="450">UNREGISTERED</text><text fill="#eeeeee" stroke="none" font-family="Arial" font-size="24px" font-style="normal" font-weight="normal" text-decoration="none" x="200" y="480">UNREGISTERED</text><g transform="translate(-494,-182) scale(1,1)"><rect fill="#C0C0C0" stroke="none" x="511" y="311" width="256" height="104" opacity="0.2"/></g><g transform="translate(-494,-182) scale(1,1)"><rect fill="#ffffff" stroke="none" x="504" y="304" width="256" height="104"/></g><g transform="translate(-494,-182) scale(1,1)"><path fill="none" stroke="#000000" d="M 504 304 L 760 304 L 760 408 L 504 408 L 504 304 Z Z" stroke-miterlimit="10"/></g><g transform="translate(-494,-182) scale(1,1)"><path fill="none" stroke="#000000" d="M 504 329 L 760 329" stroke-miterlimit="10"/></g><g transform="translate(-494,-182) scale(1,1)"><path fill="none" stroke="#000000" d="M 504 352 L 760 352" stroke-miterlimit="10"/></g><g transform="translate(-494,-182) scale(1,1)"><g><path fill="none" stroke="none"/><text fill="#000000" stroke="none" font-family="Arial" font-size="13px" font-style="italic" font-weight="bold" text-decoration="none" x="604.54638671875" y="323.5">Doc Card</text></g></g><g transform="translate(-494,-182) scale(1,1)"><g><path fill="none" stroke="none"/><text fill="#000000" stroke="none" font-family="Arial" font-size="13px" font-style="normal" font-weight="normal" text-decoration="none" x="509" y="346.5">+doc</text></g></g><g transform="translate(-494,-182) scale(1,1)"><g><path fill="none" stroke="none"/><text fill="#000000" stroke="none" font-family="Arial" font-size="13px" font-style="italic" font-weight="normal" text-decoration="none" x="509" y="369.5">+displayDocumentValues(docData)</text></g></g><g transform="translate(-494,-182) scale(1,1)"><g><path fill="none" stroke="none"/><text fill="#000000" stroke="none" font-family="Arial" font-size="13px" font-style="normal" font-weight="normal" text-decoration="none" x="509" y="384.5">+set document()</text></g></g><g transform="translate(-494,-182) scale(1,1)"><rect fill="#C0C0C0" stroke="none" x="575" y="551" width="125.29541015625" height="117" opacity="0.2"/></g><g transform="translate(-494,-182) scale(1,1)"><rect fill="#ffffff" stroke="none" x="568" y="544" width="125.29541015625" height="117"/></g><g transform="translate(-494,-182) scale(1,1)"><path fill="none" stroke="#000000" d="M 568 544 L 693.29541015625 544 L 693.29541015625 661 L 568 661 L 568 544 Z Z" stroke-miterlimit="10"/></g><g transform="translate(-494,-182) scale(1,1)"><path fill="none" stroke="#000000" d="M 568 569 L 693.29541015625 569" stroke-miterlimit="10"/></g><g transform="translate(-494,-182) scale(1,1)"><path fill="none" stroke="#000000" d="M 568 592 L 693.29541015625 592" stroke-miterlimit="10"/></g><g transform="translate(-494,-182) scale(1,1)"><g><path fill="none" stroke="none"/><text fill="#000000" stroke="none" font-family="Arial" font-size="13px" font-style="italic" font-weight="bold" text-decoration="none" x="577.898681640625" y="563.5">Editable Doc Card</text></g></g><g transform="translate(-494,-182) scale(1,1)"><g><path fill="none" stroke="none"/><text fill="#000000" stroke="none" font-family="Arial" font-size="13px" font-style="normal" font-weight="normal" text-decoration="none" x="573" y="586.5">+shouldShowEdit</text></g></g><g transform="translate(-494,-182) scale(1,1)"><g><path fill="none" stroke="none"/><text fill="#000000" stroke="none" font-family="Arial" font-size="13px" font-style="normal" font-weight="normal" text-decoration="none" x="573" y="609.5">+set document()</text></g></g><g transform="translate(-494,-182) scale(1,1)"><g><path fill="none" stroke="none"/><text fill="#000000" stroke="none" font-family="Arial" font-size="13px" font-style="normal" font-weight="normal" text-decoration="none" x="573" y="624.5">+set CanEdit(val)</text></g></g><g transform="translate(-494,-182) scale(1,1)"><g><path fill="none" stroke="none"/><text fill="#000000" stroke="none" font-family="Arial" font-size="13px" font-style="normal" font-weight="normal" text-decoration="none" x="573" y="639.5">+toggleEditButton()</text></g></g><g transform="translate(-494,-182) scale(1,1)"><g><path fill="none" stroke="none"/><text fill="#000000" stroke="none" font-family="Arial" font-size="13px" font-style="normal" font-weight="normal" text-decoration="none" x="573" y="654.5">+createEditButton()</text></g></g><g transform="translate(-494,-182) scale(1,1)"><path fill="none" stroke="#000000" d="M 630 543 L 632 409" stroke-miterlimit="10"/></g><g transform="translate(-494,-182) scale(1,1)"><path fill="#FFFFFF" stroke="none" d="M 640.1147682834452 429.4487294398941 L 632 409 L 623.2785724273836 429.1974429345797"/></g><g transform="translate(-494,-182) scale(1,1)"><path fill="none" stroke="#000000" d="M 640.1147682834452 429.4487294398941 L 632 409 L 623.2785724273836 429.1974429345797 L 640.1147682834452 429.4487294398941" stroke-miterlimit="10"/></g><g transform="translate(-494,-182) scale(1,1)"><rect fill="#C0C0C0" stroke="none" x="591" y="199" width="99.28271484375" height="44" opacity="0.2"/></g><g transform="translate(-494,-182) scale(1,1)"><rect fill="#ffffff" stroke="none" x="584" y="192" width="99.28271484375" height="44"/></g><g transform="translate(-494,-182) scale(1,1)"><path fill="none" stroke="#000000" d="M 584 192 L 683.28271484375 192 L 683.28271484375 236 L 584 236 L 584 192 Z Z" stroke-miterlimit="10"/></g><g transform="translate(-494,-182) scale(1,1)"><path fill="none" stroke="#000000" d="M 584 217 L 683.28271484375 217" stroke-miterlimit="10"/></g><g transform="translate(-494,-182) scale(1,1)"><path fill="none" stroke="#000000" d="M 584 227 L 683.28271484375 227" stroke-miterlimit="10"/></g><g transform="translate(-494,-182) scale(1,1)"><g><path fill="none" stroke="none"/><text fill="#000000" stroke="none" font-family="Arial" font-size="13px" font-style="normal" font-weight="bold" text-decoration="none" x="590.29638671875" y="211.5">HTML Element</text></g></g><g transform="translate(-494,-182) scale(1,1)"><path fill="none" stroke="#000000" d="M 632 303 L 633 237" stroke-miterlimit="10"/></g><g transform="translate(-494,-182) scale(1,1)"><path fill="#FFFFFF" stroke="none" d="M 641.1101448047532 257.45056359237896 L 633 237 L 624.274006192588 257.1954705831037"/></g><g transform="translate(-494,-182) scale(1,1)"><path fill="none" stroke="#000000" d="M 641.1101448047532 257.45056359237896 L 633 237 L 624.274006192588 257.1954705831037 L 641.1101448047532 257.45056359237896" stroke-miterlimit="10"/></g></g></svg>