<svg version="1.1" xmlns="http://www.w3.org/2000/svg" xmlns:xlink="http://www.w3.org/1999/xlink" width="880" height="398"><defs/><g><text fill="#eeeeee" stroke="none" font-family="Arial" font-size="24px" font-style="normal" font-weight="normal" text-decoration="none" x="0" y="0">UNREGISTERED</text><text fill="#eeeeee" stroke="none" font-family="Arial" font-size="24px" font-style="normal" font-weight="normal" text-decoration="none" x="0" y="30">UNREGISTERED</text><text fill="#eeeeee" stroke="none" font-family="Arial" font-size="24px" font-style="normal" font-weight="normal" text-decoration="none" x="0" y="60">UNREGISTERED</text><text fill="#eeeeee" stroke="none" font-family="Arial" font-size="24px" font-style="normal" font-weight="normal" text-decoration="none" x="0" y="90">UNREGISTERED</text><text fill="#eeeeee" stroke="none" font-family="Arial" font-size="24px" font-style="normal" font-weight="normal" text-decoration="none" x="0" y="120">UNREGISTERED</text><text fill="#eeeeee" stroke="none" font-family="Arial" font-size="24px" font-style="normal" font-weight="normal" text-decoration="none" x="0" y="150">UNREGISTERED</text><text fill="#eeeeee" stroke="none" font-family="Arial" font-size="24px" font-style="normal" font-weight="normal" text-decoration="none" x="0" y="180">UNREGISTERED</text><text fill="#eeeeee" stroke="none" font-family="Arial" font-size="24px" font-style="normal" font-weight="normal" text-decoration="none" x="0" y="210">UNREGISTERED</text><text fill="#eeeeee" stroke="none" font-family="Arial" font-size="24px" font-style="normal" font-weight="normal" text-decoration="none" x="0" y="240">UNREGISTERED</text><text fill="#eeeeee" stroke="none" font-family="Arial" font-size="24px" font-style="normal" font-weight="normal" text-decoration="none" x="0" y="270">UNREGISTERED</text><text fill="#eeeeee" stroke="none" font-family="Arial" font-size="24px" font-style="normal" font-weight="normal" text-decoration="none" x="0" y="300">UNREGISTERED</text><text fill="#eeeeee" stroke="none" font-family="Arial" font-size="24px" font-style="normal" font-weight="normal" text-decoration="none" x="0" y="330">UNREGISTERED</text><text fill="#eeeeee" stroke="none" font-family="Arial" font-size="24px" font-style="normal" font-weight="normal" text-decoration="none" x="0" y="360">UNREGISTERED</text><text fill="#eeeeee" stroke="none" font-family="Arial" font-size="24px" font-style="normal" font-weight="normal" text-decoration="none" x="0" y="390">UNREGISTERED</text><text fill="#eeeeee" stroke="none" font-family="Arial" font-size="24px" font-style="normal" font-weight="normal" text-decoration="none" x="200" y="0">UNREGISTERED</text><text fill="#eeeeee" stroke="none" font-family="Arial" font-size="24px" font-style="normal" font-weight="normal" text-decoration="none" x="200" y="30">UNREGISTERED</text><text fill="#eeeeee" stroke="none" font-family="Arial" font-size="24px" font-style="normal" font-weight="normal" text-decoration="none" x="200" y="60">UNREGISTERED</text><text fill="#eeeeee" stroke="none" font-family="Arial" font-size="24px" font-style="normal" font-weight="normal" text-decoration="none" x="200" y="90">UNREGISTERED</text><text fill="#eeeeee" stroke="none" font-family="Arial" font-size="24px" font-style="normal" font-weight="normal" text-decoration="none" x="200" y="120">UNREGISTERED</text><text fill="#eeeeee" stroke="none" font-family="Arial" font-size="24px" font-style="normal" font-weight="normal" text-decoration="none" x="200" y="150">UNREGISTERED</text><text fill="#eeeeee" stroke="none" font-family="Arial" font-size="24px" font-style="normal" font-weight="normal" text-decoration="none" x="200" y="180">UNREGISTERED</text><text fill="#eeeeee" stroke="none" font-family="Arial" font-size="24px" font-style="normal" font-weight="normal" text-decoration="none" x="200" y="210">UNREGISTERED</text><text fill="#eeeeee" stroke="none" font-family="Arial" font-size="24px" font-style="normal" font-weight="normal" text-decoration="none" x="200" y="240">UNREGISTERED</text><text fill="#eeeeee" stroke="none" font-family="Arial" font-size="24px" font-style="normal" font-weight="normal" text-decoration="none" x="200" y="270">UNREGISTERED</text><text fill="#eeeeee" stroke="none" font-family="Arial" font-size="24px" font-style="normal" font-weight="normal" text-decoration="none" x="200" y="300">UNREGISTERED</text><text fill="#eeeeee" stroke="none" font-family="Arial" font-size="24px" font-style="normal" font-weight="normal" text-decoration="none" x="200" y="330">UNREGISTERED</text><text fill="#eeeeee" stroke="none" font-family="Arial" font-size="24px" font-style="normal" font-weight="normal" text-decoration="none" x="200" y="360">UNREGISTERED</text><text fill="#eeeeee" stroke="none" font-family="Arial" font-size="24px" font-style="normal" font-weight="normal" text-decoration="none" x="200" y="390">UNREGISTERED</text><text fill="#eeeeee" stroke="none" font-family="Arial" font-size="24px" font-style="normal" font-weight="normal" text-decoration="none" x="400" y="0">UNREGISTERED</text><text fill="#eeeeee" stroke="none" font-family="Arial" font-size="24px" font-style="normal" font-weight="normal" text-decoration="none" x="400" y="30">UNREGISTERED</text><text fill="#eeeeee" stroke="none" font-family="Arial" font-size="24px" font-style="normal" font-weight="normal" text-decoration="none" x="400" y="60">UNREGISTERED</text><text fill="#eeeeee" stroke="none" font-family="Arial" font-size="24px" font-style="normal" font-weight="normal" text-decoration="none" x="400" y="90">UNREGISTERED</text><text fill="#eeeeee" stroke="none" font-family="Arial" font-size="24px" font-style="normal" font-weight="normal" text-decoration="none" x="400" y="120">UNREGISTERED</text><text fill="#eeeeee" stroke="none" font-family="Arial" font-size="24px" font-style="normal" font-weight="normal" text-decoration="none" x="400" y="150">UNREGISTERED</text><text fill="#eeeeee" stroke="none" font-family="Arial" font-size="24px" font-style="normal" font-weight="normal" text-decoration="none" x="400" y="180">UNREGISTERED</text><text fill="#eeeeee" stroke="none" font-family="Arial" font-size="24px" font-style="normal" font-weight="normal" text-decoration="none" x="400" y="210">UNREGISTERED</text><text fill="#eeeeee" stroke="none" font-family="Arial" font-size="24px" font-style="normal" font-weight="normal" text-decoration="none" x="400" y="240">UNREGISTERED</text><text fill="#eeeeee" stroke="none" font-family="Arial" font-size="24px" font-style="normal" font-weight="normal" text-decoration="none" x="400" y="270">UNREGISTERED</text><text fill="#eeeeee" stroke="none" font-family="Arial" font-size="24px" font-style="normal" font-weight="normal" text-decoration="none" x="400" y="300">UNREGISTERED</text><text fill="#eeeeee" stroke="none" font-family="Arial" font-size="24px" font-style="normal" font-weight="normal" text-decoration="none" x="400" y="330">UNREGISTERED</text><text fill="#eeeeee" stroke="none" font-family="Arial" font-size="24px" font-style="normal" font-weight="normal" text-decoration="none" x="400" y="360">UNREGISTERED</text><text fill="#eeeeee" stroke="none" font-family="Arial" font-size="24px" font-style="normal" font-weight="normal" text-decoration="none" x="400" y="390">UNREGISTERED</text><text fill="#eeeeee" stroke="none" font-family="Arial" font-size="24px" font-style="normal" font-weight="normal" text-decoration="none" x="600" y="0">UNREGISTERED</text><text fill="#eeeeee" stroke="none" font-family="Arial" font-size="24px" font-style="normal" font-weight="normal" text-decoration="none" x="600" y="30">UNREGISTERED</text><text fill="#eeeeee" stroke="none" font-family="Arial" font-size="24px" font-style="normal" font-weight="normal" text-decoration="none" x="600" y="60">UNREGISTERED</text><text fill="#eeeeee" stroke="none" font-family="Arial" font-size="24px" font-style="normal" font-weight="normal" text-decoration="none" x="600" y="90">UNREGISTERED</text><text fill="#eeeeee" stroke="none" font-family="Arial" font-size="24px" font-style="normal" font-weight="normal" text-decoration="none" x="600" y="120">UNREGISTERED</text><text fill="#eeeeee" stroke="none" font-family="Arial" font-size="24px" font-style="normal" font-weight="normal" text-decoration="none" x="600" y="150">UNREGISTERED</text><text fill="#eeeeee" stroke="none" font-family="Arial" font-size="24px" font-style="normal" font-weight="normal" text-decoration="none" x="600" y="180">UNREGISTERED</text><text fill="#eeeeee" stroke="none" font-family="Arial" font-size="24px" font-style="normal" font-weight="normal" text-decoration="none" x="600" y="210">UNREGISTERED</text><text fill="#eeeeee" stroke="none" font-family="Arial" font-size="24px" font-style="normal" font-weight="normal" text-decoration="none" x="600" y="240">UNREGISTERED</text><text fill="#eeeeee" stroke="none" font-family="Arial" font-size="24px" font-style="normal" font-weight="normal" text-decoration="none" x="600" y="270">UNREGISTERED</text><text fill="#eeeeee" stroke="none" font-family="Arial" font-size="24px" font-style="normal" font-weight="normal" text-decoration="none" x="600" y="300">UNREGISTERED</text><text fill="#eeeeee" stroke="none" font-family="Arial" font-size="24px" font-style="normal" font-weight="normal" text-decoration="none" x="600" y="330">UNREGISTERED</text><text fill="#eeeeee" stroke="none" font-family="Arial" font-size="24px" font-style="normal" font-weight="normal" text-decoration="none" x="600" y="360">UNREGISTERED</text><text fill="#eeeeee" stroke="none" font-family="Arial" font-size="24px" font-style="normal" font-weight="normal" text-decoration="none" x="600" y="390">UNREGISTERED</text><text fill="#eeeeee" stroke="none" font-family="Arial" font-size="24px" font-style="normal" font-weight="normal" text-decoration="none" x="800" y="0">UNREGISTERED</text><text fill="#eeeeee" stroke="none" font-family="Arial" font-size="24px" font-style="normal" font-weight="normal" text-decoration="none" x="800" y="30">UNREGISTERED</text><text fill="#eeeeee" stroke="none" font-family="Arial" font-size="24px" font-style="normal" font-weight="normal" text-decoration="none" x="800" y="60">UNREGISTERED</text><text fill="#eeeeee" stroke="none" font-family="Arial" font-size="24px" font-style="normal" font-weight="normal" text-decoration="none" x="800" y="90">UNREGISTERED</text><text fill="#eeeeee" stroke="none" font-family="Arial" font-size="24px" font-style="normal" font-weight="normal" text-decoration="none" x="800" y="120">UNREGISTERED</text><text fill="#eeeeee" stroke="none" font-family="Arial" font-size="24px" font-style="normal" font-weight="normal" text-decoration="none" x="800" y="150">UNREGISTERED</text><text fill="#eeeeee" stroke="none" font-family="Arial" font-size="24px" font-style="normal" font-weight="normal" text-decoration="none" x="800" y="180">UNREGISTERED</text><text fill="#eeeeee" stroke="none" font-family="Arial" font-size="24px" font-style="normal" font-weight="normal" text-decoration="none" x="800" y="210">UNREGISTERED</text><text fill="#eeeeee" stroke="none" font-family="Arial" font-size="24px" font-style="normal" font-weight="normal" text-decoration="none" x="800" y="240">UNREGISTERED</text><text fill="#eeeeee" stroke="none" font-family="Arial" font-size="24px" font-style="normal" font-weight="normal" text-decoration="none" x="800" y="270">UNREGISTERED</text><text fill="#eeeeee" stroke="none" font-family="Arial" font-size="24px" font-style="normal" font-weight="normal" text-decoration="none" x="800" y="300">UNREGISTERED</text><text fill="#eeeeee" stroke="none" font-family="Arial" font-size="24px" font-style="normal" font-weight="normal" text-decoration="none" x="800" y="330">UNREGISTERED</text><text fill="#eeeeee" stroke="none" font-family="Arial" font-size="24px" font-style="normal" font-weight="normal" text-decoration="none" x="800" y="360">UNREGISTERED</text><text fill="#eeeeee" stroke="none" font-family="Arial" font-size="24px" font-style="normal" font-weight="normal" text-decoration="none" x="800" y="390">UNREGISTERED</text><g transform="translate(-286,-254) scale(1,1)"><path fill="#ffffff" stroke="none" d="M 338.47478000710225 297.68 C 338.47478000710225 292.886167936 342.36062233204774 289 347.154052734375 289 C 351.94748313670226 289 355.83332546164775 292.886167936 355.83332546164775 297.68 C 355.83332546164775 302.473832064 351.94748313670226 306.36 347.154052734375 306.36 C 342.36062233204774 306.36 338.47478000710225 302.473832064 338.47478000710225 297.68 Z"/></g><g transform="translate(-286,-254) scale(1,1)"><path fill="none" stroke="#000000" d="M 338.47478000710225 297.68 C 338.47478000710225 292.886167936 342.36062233204774 289 347.154052734375 289 C 351.94748313670226 289 355.83332546164775 292.886167936 355.83332546164775 297.68 C 355.83332546164775 302.473832064 351.94748313670226 306.36 347.154052734375 306.36 C 342.36062233204774 306.36 338.47478000710225 302.473832064 338.47478000710225 297.68 Z" stroke-miterlimit="10"/></g><g transform="translate(-286,-254) scale(1,1)"><path fill="none" stroke="#000000" d="M 347.154052734375 306.36 L 347.154052734375 323.64" stroke-miterlimit="10"/></g><g transform="translate(-286,-254) scale(1,1)"><path fill="none" stroke="#000000" d="M 337.96423455255683 312.84 L 356.34387091619317 312.84" stroke-miterlimit="10"/></g><g transform="translate(-286,-254) scale(1,1)"><path fill="none" stroke="#000000" d="M 347.154052734375 323.64 L 334.39041637073865 341" stroke-miterlimit="10"/></g><g transform="translate(-286,-254) scale(1,1)"><path fill="none" stroke="#000000" d="M 347.154052734375 323.64 L 359.91768909801135 341" stroke-miterlimit="10"/></g><g transform="translate(-286,-254) scale(1,1)"><g><path fill="none" stroke="none"/><text fill="#000000" stroke="none" font-family="Arial" font-size="13px" font-style="normal" font-weight="bold" text-decoration="none" x="310.30908203125" y="361.5">Team Owner</text></g></g><g transform="translate(-286,-254) scale(1,1)"><path fill="#C0C0C0" stroke="none" d="M 639 328 C 639 318.6111584 666.3106272 311 700 311 C 733.6893728 311 761 318.6111584 761 328 C 761 337.3888416 733.6893728 345 700 345 C 666.3106272 345 639 337.3888416 639 328 Z" opacity="0.2"/></g><g transform="translate(-286,-254) scale(1,1)"><path fill="#ffffff" stroke="none" d="M 632 321 C 632 311.6111584 659.3106272 304 693 304 C 726.6893728 304 754 311.6111584 754 321 C 754 330.3888416 726.6893728 338 693 338 C 659.3106272 338 632 330.3888416 632 321 Z"/></g><g transform="translate(-286,-254) scale(1,1)"><path fill="none" stroke="#000000" d="M 632 321 C 632 311.6111584 659.3106272 304 693 304 C 726.6893728 304 754 311.6111584 754 321 C 754 330.3888416 726.6893728 338 693 338 C 659.3106272 338 632 330.3888416 632 321 Z" stroke-miterlimit="10"/></g><g transform="translate(-286,-254) scale(1,1)"><g><path fill="none" stroke="none"/><text fill="#000000" stroke="none" font-family="Arial" font-size="13px" font-style="normal" font-weight="bold" text-decoration="none" x="655.7900390625" y="328">Create Team</text></g></g><g transform="translate(-286,-254) scale(1,1)"><path fill="#C0C0C0" stroke="none" d="M 679 432 C 679 422.6111584 706.3106272 415 740 415 C 773.6893728 415 801 422.6111584 801 432 C 801 441.3888416 773.6893728 449 740 449 C 706.3106272 449 679 441.3888416 679 432 Z" opacity="0.2"/></g><g transform="translate(-286,-254) scale(1,1)"><path fill="#ffffff" stroke="none" d="M 672 425 C 672 415.6111584 699.3106272 408 733 408 C 766.6893728 408 794 415.6111584 794 425 C 794 434.3888416 766.6893728 442 733 442 C 699.3106272 442 672 434.3888416 672 425 Z"/></g><g transform="translate(-286,-254) scale(1,1)"><path fill="none" stroke="#000000" d="M 672 425 C 672 415.6111584 699.3106272 408 733 408 C 766.6893728 408 794 415.6111584 794 425 C 794 434.3888416 766.6893728 442 733 442 C 699.3106272 442 672 434.3888416 672 425 Z" stroke-miterlimit="10"/></g><g transform="translate(-286,-254) scale(1,1)"><g><path fill="none" stroke="none"/><text fill="#000000" stroke="none" font-family="Arial" font-size="13px" font-style="normal" font-weight="bold" text-decoration="none" x="695.7900390625" y="432">Create Team</text></g></g><g transform="translate(-286,-254) scale(1,1)"><path fill="#C0C0C0" stroke="none" d="M 975 288 C 975 278.6111584 1017.0852288 271 1069 271 C 1120.9147712 271 1163 278.6111584 1163 288 C 1163 297.3888416 1120.9147712 305 1069 305 C 1017.0852288 305 975 297.3888416 975 288 Z" opacity="0.2"/></g><g transform="translate(-286,-254) scale(1,1)"><path fill="#ffffff" stroke="none" d="M 968 281 C 968 271.6111584 1010.0852288 264 1062 264 C 1113.9147712 264 1156 271.6111584 1156 281 C 1156 290.3888416 1113.9147712 298 1062 298 C 1010.0852288 298 968 290.3888416 968 281 Z"/></g><g transform="translate(-286,-254) scale(1,1)"><path fill="none" stroke="#000000" d="M 968 281 C 968 271.6111584 1010.0852288 264 1062 264 C 1113.9147712 264 1156 271.6111584 1156 281 C 1156 290.3888416 1113.9147712 298 1062 298 C 1010.0852288 298 968 290.3888416 968 281 Z" stroke-miterlimit="10"/></g><g transform="translate(-286,-254) scale(1,1)"><g><path fill="none" stroke="none"/><text fill="#000000" stroke="none" font-family="Arial" font-size="13px" font-style="normal" font-weight="bold" text-decoration="none" x="1003.119140625" y="288">Invite Team Member</text></g></g><g transform="translate(-286,-254) scale(1,1)"><path fill="#C0C0C0" stroke="none" d="M 679 624 C 679 614.6111584 704.9674816 607 737 607 C 769.0325184 607 795 614.6111584 795 624 C 795 633.3888416 769.0325184 641 737 641 C 704.9674816 641 679 633.3888416 679 624 Z" opacity="0.2"/></g><g transform="translate(-286,-254) scale(1,1)"><path fill="#ffffff" stroke="none" d="M 672 617 C 672 607.6111584 697.9674816 600 730 600 C 762.0325184 600 788 607.6111584 788 617 C 788 626.3888416 762.0325184 634 730 634 C 697.9674816 634 672 626.3888416 672 617 Z"/></g><g transform="translate(-286,-254) scale(1,1)"><path fill="none" stroke="#000000" d="M 672 617 C 672 607.6111584 697.9674816 600 730 600 C 762.0325184 600 788 607.6111584 788 617 C 788 626.3888416 762.0325184 634 730 634 C 697.9674816 634 672 626.3888416 672 617 Z" stroke-miterlimit="10"/></g><g transform="translate(-286,-254) scale(1,1)"><g><path fill="none" stroke="none"/><text fill="#000000" stroke="none" font-family="Arial" font-size="13px" font-style="normal" font-weight="bold" text-decoration="none" x="695.078369140625" y="624">View Teams</text></g></g><g transform="translate(-286,-254) scale(1,1)"><path fill="#C0C0C0" stroke="none" d="M 863 536 C 863 526.6111584 885.6096176 519 913.5 519 C 941.3903824 519 964 526.6111584 964 536 C 964 545.3888416 941.3903824 553 913.5 553 C 885.6096176 553 863 545.3888416 863 536 Z" opacity="0.2"/></g><g transform="translate(-286,-254) scale(1,1)"><path fill="#ffffff" stroke="none" d="M 856 529 C 856 519.6111584 878.6096176 512 906.5 512 C 934.3903824 512 957 519.6111584 957 529 C 957 538.3888416 934.3903824 546 906.5 546 C 878.6096176 546 856 538.3888416 856 529 Z"/></g><g transform="translate(-286,-254) scale(1,1)"><path fill="none" stroke="#000000" d="M 856 529 C 856 519.6111584 878.6096176 512 906.5 512 C 934.3903824 512 957 519.6111584 957 529 C 957 538.3888416 934.3903824 546 906.5 546 C 878.6096176 546 856 538.3888416 856 529 Z" stroke-miterlimit="10"/></g><g transform="translate(-286,-254) scale(1,1)"><g><path fill="none" stroke="none"/><text fill="#000000" stroke="none" font-family="Arial" font-size="13px" font-style="normal" font-weight="bold" text-decoration="none" x="890.595947265625" y="536">Login</text></g></g><g transform="translate(-286,-254) scale(1,1)"><path fill="#C0C0C0" stroke="none" d="M 959 480 C 959 470.6111584 990.7877792 463 1030 463 C 1069.2122208 463 1101 470.6111584 1101 480 C 1101 489.3888416 1069.2122208 497 1030 497 C 990.7877792 497 959 489.3888416 959 480 Z" opacity="0.2"/></g><g transform="translate(-286,-254) scale(1,1)"><path fill="#ffffff" stroke="none" d="M 952 473 C 952 463.6111584 983.7877792 456 1023 456 C 1062.2122208 456 1094 463.6111584 1094 473 C 1094 482.3888416 1062.2122208 490 1023 490 C 983.7877792 490 952 482.3888416 952 473 Z"/></g><g transform="translate(-286,-254) scale(1,1)"><path fill="none" stroke="#000000" d="M 952 473 C 952 463.6111584 983.7877792 456 1023 456 C 1062.2122208 456 1094 463.6111584 1094 473 C 1094 482.3888416 1062.2122208 490 1023 490 C 983.7877792 490 952 482.3888416 952 473 Z" stroke-miterlimit="10"/></g><g transform="translate(-286,-254) scale(1,1)"><g><path fill="none" stroke="none"/><text fill="#000000" stroke="none" font-family="Arial" font-size="13px" font-style="normal" font-weight="bold" text-decoration="none" x="980.010498046875" y="480">Complete Task</text></g></g><g transform="translate(-286,-254) scale(1,1)"><path fill="#C0C0C0" stroke="none" d="M 1039 376 C 1039 366.6111584 1061.8334752 359 1090 359 C 1118.1665248 359 1141 366.6111584 1141 376 C 1141 385.3888416 1118.1665248 393 1090 393 C 1061.8334752 393 1039 385.3888416 1039 376 Z" opacity="0.2"/></g><g transform="translate(-286,-254) scale(1,1)"><path fill="#ffffff" stroke="none" d="M 1032 369 C 1032 359.6111584 1054.8334752 352 1083 352 C 1111.1665248 352 1134 359.6111584 1134 369 C 1134 378.3888416 1111.1665248 386 1083 386 C 1054.8334752 386 1032 378.3888416 1032 369 Z"/></g><g transform="translate(-286,-254) scale(1,1)"><path fill="none" stroke="#000000" d="M 1032 369 C 1032 359.6111584 1054.8334752 352 1083 352 C 1111.1665248 352 1134 359.6111584 1134 369 C 1134 378.3888416 1111.1665248 386 1083 386 C 1054.8334752 386 1032 378.3888416 1032 369 Z" stroke-miterlimit="10"/></g><g transform="translate(-286,-254) scale(1,1)"><g><path fill="none" stroke="none"/><text fill="#000000" stroke="none" font-family="Arial" font-size="13px" font-style="normal" font-weight="bold" text-decoration="none" x="1053.37548828125" y="376">Join Team</text></g></g><g transform="translate(-286,-254) scale(1,1)"><path fill="#C0C0C0" stroke="none" d="M 959 632 C 959 622.6111584 983.624336 615 1014 615 C 1044.375664 615 1069 622.6111584 1069 632 C 1069 641.3888416 1044.375664 649 1014 649 C 983.624336 649 959 641.3888416 959 632 Z" opacity="0.2"/></g><g transform="translate(-286,-254) scale(1,1)"><path fill="#ffffff" stroke="none" d="M 952 625 C 952 615.6111584 976.624336 608 1007 608 C 1037.375664 608 1062 615.6111584 1062 625 C 1062 634.3888416 1037.375664 642 1007 642 C 976.624336 642 952 634.3888416 952 625 Z"/></g><g transform="translate(-286,-254) scale(1,1)"><path fill="none" stroke="#000000" d="M 952 625 C 952 615.6111584 976.624336 608 1007 608 C 1037.375664 608 1062 615.6111584 1062 625 C 1062 634.3888416 1037.375664 642 1007 642 C 976.624336 642 952 634.3888416 952 625 Z" stroke-miterlimit="10"/></g><g transform="translate(-286,-254) scale(1,1)"><g><path fill="none" stroke="none"/><text fill="#000000" stroke="none" font-family="Arial" font-size="13px" font-style="normal" font-weight="bold" text-decoration="none" x="974.60791015625" y="632">View Tasks</text></g></g><g transform="translate(-286,-254) scale(1,1)"><path fill="#ffffff" stroke="none" d="M 312.40935031960225 537.6800000000001 C 312.40935031960225 532.8861679360001 316.29519264454774 529 321.088623046875 529 C 325.88205344920226 529 329.76789577414775 532.8861679360001 329.76789577414775 537.6800000000001 C 329.76789577414775 542.473832064 325.88205344920226 546.36 321.088623046875 546.36 C 316.29519264454774 546.36 312.40935031960225 542.473832064 312.40935031960225 537.6800000000001 Z"/></g><g transform="translate(-286,-254) scale(1,1)"><path fill="none" stroke="#000000" d="M 312.40935031960225 537.6800000000001 C 312.40935031960225 532.8861679360001 316.29519264454774 529 321.088623046875 529 C 325.88205344920226 529 329.76789577414775 532.8861679360001 329.76789577414775 537.6800000000001 C 329.76789577414775 542.473832064 325.88205344920226 546.36 321.088623046875 546.36 C 316.29519264454774 546.36 312.40935031960225 542.473832064 312.40935031960225 537.6800000000001 Z" stroke-miterlimit="10"/></g><g transform="translate(-286,-254) scale(1,1)"><path fill="none" stroke="#000000" d="M 321.088623046875 546.36 L 321.088623046875 563.64" stroke-miterlimit="10"/></g><g transform="translate(-286,-254) scale(1,1)"><path fill="none" stroke="#000000" d="M 311.89880486505683 552.84 L 330.27844122869317 552.84" stroke-miterlimit="10"/></g><g transform="translate(-286,-254) scale(1,1)"><path fill="none" stroke="#000000" d="M 321.088623046875 563.64 L 308.32498668323865 581" stroke-miterlimit="10"/></g><g transform="translate(-286,-254) scale(1,1)"><path fill="none" stroke="#000000" d="M 321.088623046875 563.64 L 333.85225941051135 581" stroke-miterlimit="10"/></g><g transform="translate(-286,-254) scale(1,1)"><g><path fill="none" stroke="none"/><text fill="#000000" stroke="none" font-family="Arial" font-size="13px" font-style="normal" font-weight="bold" text-decoration="none" x="307.364990234375" y="601.5">User</text></g></g></g></svg>